P3
20 20
255
255
255
255
255
255
255
255
255
255
255
255
255
254
254
254
252
252
252
253
252
253
252
253
252
255
255
255
255
255
255
255
255
255
255
255
255
255
255
255
255
255
255
255
255
255
255
255
255
254
254
254
253
253
253
251
251
251
232
234
232
255
255
255
255
255
255
255
255
255
255
255
255
253
253
253
251
251
251
250
250
250
251
251
251
254
254
254
255
255
255
255
255
255
255
255
255
255
255
255
255
255
255
255
255
255
255
255
255
255
255
255
254
254
254
253
252
253
240
241
239
255
255
255
255
255
255
255
255
255
255
255
255
253
253
253
250
250
250
247
248
247
250
250
250
253
253
253
255
255
255
255
255
255
255
255
255
255
255
255
255
255
255
255
255
255
255
255
255
255
255
255
254
254
254
252
253
252
245
245
245
255
255
255
255
255
255
255
255
255
255
255
255
253
253
253
219
219
219
217
218
217
219
219
219
252
253
252
255
255
255
255
255
255
255
255
255
224
224
224
224
224
224
224
224
224
255
255
255
255
255
255
255
255
255
253
253
253
249
248
249
255
255
255
255
255
255
255
255
255
255
255
255
191
191
191
94
63
64
61
31
32
93
62
63
190
190
190
254
254
254
255
255
255
192
192
192
86
65
68
51
32
36
80
64
70
192
192
192
255
255
255
255
255
255
254
254
254
250
250
250
255
255
255
255
255
255
255
255
255
192
192
192
124
64
65
186
2
8
220
2
9
188
2
8
125
63
65
191
191
191
192
192
192
113
66
71
137
7
27
144
7
37
112
5
37
98
65
77
192
192
192
255
255
255
253
253
253
250
250
250
255
255
255
255
255
255
224
224
224
92
64
65
176
1
7
239
2
10
247
2
10
249
2
10
188
2
8
93
32
34
89
33
36
158
9
26
187
10
36
171
8
41
159
7
45
109
5
38
80
64
70
224
224
224
254
254
254
251
251
251
255
255
255
255
255
255
224
224
224
61
32
33
205
1
8
235
2
10
237
2
10
239
2
10
247
2
10
219
2
9
210
3
11
219
9
28
194
10
35
181
9
37
165
8
43
127
6
45
49
32
37
224
224
224
254
254
254
252
252
252
255
255
255
255
255
255
224
224
224
61
32
33
205
1
8
235
2
10
235
2
10
235
2
10
239
2
10
248
2
10
245
2
10
236
4
16
212
10
32
187
10
36
165
8
43
127
6
45
49
32
37
224
224
224
254
254
254
252
252
252
255
255
255
255
255
255
224
224
224
92
64
65
176
1
7
235
2
10
235
2
10
235
2
10
237
2
10
247
2
10
249
2
10
241
3
13
215
11
31
187
10
36
165
8
43
109
5
38
80
64
70
224
224
224
254
254
254
252
252
252
255
255
255
255
255
255
255
255
255
192
192
192
90
32
34
205
1
8
235
2
10
235
2
10
235
2
10
239
2
10
248
2
10
241
3
13
215
11
31
187
10
36
147
7
36
70
33
42
192
192
192
255
255
255
254
254
254
252
252
252
255
255
255
255
255
255
255
255
255
224
224
224
92
64
65
176
1
7
235
2
10
235
2
10
235
2
10
237
2
10
248
2
10
241
3
13
215
11
31
187
10
36
127
6
31
83
65
68
224
224
224
255
255
255
254
254
254
252
252
252
255
255
255
255
255
255
255
255
255
255
255
255
192
192
192
122
64
66
176
1
7
235
2
10
235
2
10
237
2
10
248
2
10
241
3
13
214
11
32
143
7
26
107
66
73
192
192
192
255
255
255
255
255
255
254
254
254
252
252
252
255
255
255
255
255
255
255
255
255
255
255
255
255
255
255
192
192
192
122
64
66
176
1
7
235
2
10
237
2
10
248
2
10
240
3
13
160
7
25
113
66
73
192
192
192
255
255
255
255
255
255
255
255
255
254
254
254
252
252
252
255
255
255
255
255
255
255
255
255
255
255
255
255
255
255
255
255
255
192
192
192
122
64
66
176
1
7
237
2
10
248
2
10
184
1
7
119
65
70
192
192
192
255
255
255
255
255
255
255
255
255
255
255
255
254
254
254
251
251
251
255
255
255
255
255
255
255
255
255
255
255
255
255
255
255
255
255
255
255
255
255
192
192
192
122
64
66
178
1
7
186
2
8
125
64
66
192
192
192
255
255
255
255
255
255
255
255
255
255
255
255
255
255
255
254
254
254
250
250
250
255
255
255
255
255
255
255
255
255
255
255
255
255
255
255
255
255
255
255
255
255
255
255
255
192
192
192
92
64
65
95
64
65
192
192
192
255
255
255
255
255
255
254
254
254
254
254
254
255
255
255
254
254
254
253
253
253
247
248
247
255
255
255
255
255
255
255
255
255
255
255
255
255
255
255
255
255
255
255
255
255
255
255
255
255
255
255
224
224
224
224
224
224
255
255
255
255
255
255
255
255
255
254
254
254
254
254
254
255
255
255
254
254
254
252
252
252
243
244
243
255
255
255
255
255
255
255
255
255
255
255
255
255
255
255
255
255
255
255
255
255
255
255
255
255
255
255
255
255
255
255
255
255
255
255
255
255
255
255
254
254
254
254
254
254
254
254
254
254
254
254
253
252
253
247
248
247
236
235
236
255
255
255
255
255
255
255
255
255
255
255
255
254
254
254
254
254
254
254
254
254
254
254
254
255
255
255
255
255
255
255
255
255
255
255
255
255
255
255
254
254
254
253
253
253
253
252
253
252
253
252
249
248
249
239
240
239
221
218
221
