P3
49 49
255
0
0
0
255
0
239
0
0
0
220
0
255
0
0
0
169
0
255
0
0
0
118
0
255
0
0
0
0
0
0
0
0
0
0
0
0
0
0
0
0
0
0
0
0
0
0
0
0
0
0
0
0
0
0
0
0
0
0
0
0
0
0
0
0
0
0
0
0
0
0
255
222
0
0
0
0
255
171
0
0
0
0
0
0
0
0
0
0
0
0
0
0
0
0
0
0
0
0
0
0
0
0
0
0
0
0
0
0
0
0
0
0
0
0
0
0
0
0
0
0
0
0
0
235
255
0
0
0
0
255
223
0
0
0
0
255
173
0
0
0
0
255
122
0
0
0
0
255
0
213
255
0
238
0
0
0
220
0
255
0
0
0
170
0
255
144
0
255
119
0
255
94
0
255
68
0
255
42
0
255
18
0
255
0
8
255
0
34
255
0
59
255
0
85
255
0
110
255
0
135
255
0
161
255
0
187
255
0
211
255
0
237
255
0
255
248
0
255
222
0
0
0
0
255
171
0
255
146
0
255
120
0
255
95
0
255
70
0
255
45
0
255
18
6
255
0
32
255
0
58
255
0
83
255
0
108
255
0
134
255
0
160
255
0
185
255
0
210
255
0
235
255
0
255
250
0
255
224
0
0
0
0
255
173
0
0
0
0
255
122
0
255
97
0
0
0
0
0
0
0
246
0
255
0
0
0
0
0
0
0
0
0
0
0
0
0
0
0
0
0
0
0
0
0
0
0
0
0
0
0
0
0
0
0
0
0
0
0
0
0
0
0
0
0
0
0
0
0
0
0
0
0
0
0
0
0
0
0
0
0
0
0
0
0
0
0
0
0
0
0
0
0
0
0
0
0
0
0
0
0
0
0
0
0
0
0
0
0
0
0
0
0
0
0
0
0
0
0
0
0
0
0
0
0
0
0
0
0
0
0
0
0
0
0
0
0
0
0
0
0
0
0
0
0
0
0
0
0
0
0
0
0
255
147
0
0
0
0
0
0
0
255
0
214
255
0
239
0
0
0
220
0
255
195
0
255
169
0
255
144
0
255
118
0
255
93
0
255
0
0
0
0
0
0
0
0
0
0
0
0
0
0
0
0
0
0
0
85
255
0
111
255
0
136
255
0
161
255
0
186
255
0
212
255
0
237
255
0
255
247
0
255
222
0
0
0
0
255
171
0
255
146
0
255
121
0
255
95
0
255
69
0
255
44
0
255
19
6
255
0
32
255
0
0
0
0
0
0
0
0
0
0
0
0
0
0
0
0
0
0
0
210
255
0
235
255
0
255
249
0
255
224
0
255
198
0
255
172
0
0
0
0
255
122
0
255
96
0
0
0
0
0
0
0
0
0
0
221
0
255
0
0
0
0
0
0
0
0
0
0
0
0
93
0
255
0
0
0
43
0
255
17
0
255
0
9
255
0
34
255
0
0
0
0
84
255
0
0
0
0
0
0
0
0
0
0
0
0
0
0
0
0
0
0
0
0
0
0
255
222
0
0
0
0
255
171
0
0
0
0
0
0
0
0
0
0
0
0
0
0
0
0
0
0
0
0
0
32
255
0
0
0
0
83
255
0
108
255
0
134
255
0
160
255
0
0
0
0
211
255
0
0
0
0
0
0
0
0
0
0
0
0
0
255
173
0
0
0
0
0
0
0
0
0
0
255
0
213
255
0
239
0
0
0
220
0
255
0
0
0
169
0
255
144
0
255
0
0
0
93
0
255
0
0
0
0
0
0
0
0
0
0
0
0
0
34
255
0
0
0
0
85
255
0
0
0
0
135
255
0
161
255
0
186
255
0
212
255
0
237
255
0
0
0
0
255
222
0
0
0
0
255
171
0
0
0
0
255
120
0
255
94
0
255
70
0
255
44
0
255
18
0
0
0
32
255
0
0
0
0
84
255
0
0
0
0
0
0
0
0
0
0
0
0
0
211
255
0
0
0
0
255
249
0
255
224
0
0
0
0
255
172
0
0
0
0
255
122
0
255
96
0
0
0
0
255
0
239
0
0
0
220
0
255
0
0
0
169
0
255
0
0
0
0
0
0
0
0
0
68
0
255
0
0
0
17
0
255
0
0
0
0
34
255
0
0
0
0
85
255
0
0
0
0
135
255
0
0
0
0
0
0
0
0
0
0
238
255
0
0
0
0
255
222
0
0
0
0
255
171
0
0
0
0
255
120
0
0
0
0
0
0
0
0
0
0
255
18
0
0
0
32
255
0
0
0
0
83
255
0
0
0
0
134
255
0
0
0
0
185
255
0
0
0
0
0
0
0
0
0
0
255
223
0
0
0
0
255
172
0
0
0
0
255
121
0
0
0
0
255
0
214
255
0
239
0
0
0
220
0
255
0
0
0
169
0
255
0
0
0
118
0
255
0
0
0
0
0
0
0
0
0
0
0
0
0
0
0
0
0
0
0
0
0
0
0
0
0
0
0
0
136
255
0
0
0
0
186
255
0
0
0
0
0
0
0
0
0
0
255
222
0
0
0
0
255
171
0
0
0
0
0
0
0
0
0
0
255
69
0
0
0
0
255
18
0
0
0
0
0
0
0
0
0
0
0
0
0
0
0
0
0
0
0
0
0
0
0
0
0
0
0
236
255
0
0
0
0
255
223
0
0
0
0
255
172
0
0
0
0
255
122
0
255
97
0
0
0
0
255
0
239
0
0
0
220
0
255
0
0
0
169
0
255
0
0
0
0
0
0
0
0
0
68
0
255
0
0
0
17
0
255
0
0
0
0
34
255
0
0
0
0
85
255
0
0
0
0
136
255
0
0
0
0
0
0
0
0
0
0
238
255
0
255
247
0
255
222
0
0
0
0
255
171
0
255
145
0
255
119
0
0
0
0
0
0
0
0
0
0
255
18
0
0
0
32
255
0
0
0
0
84
255
0
0
0
0
135
255
0
0
0
0
186
255
0
0
0
0
0
0
0
0
0
0
255
223
0
0
0
0
255
173
0
0
0
0
255
122
0
0
0
0
0
0
0
255
0
239
0
0
0
220
0
255
0
0
0
169
0
255
144
0
255
119
0
255
93
0
255
68
0
255
0
0
0
17
0
255
0
0
0
0
34
255
0
0
0
0
85
255
0
0
0
0
136
255
0
161
255
0
0
0
0
212
255
0
0
0
0
0
0
0
0
0
0
0
0
0
0
0
0
0
0
0
0
0
0
255
95
0
0
0
0
255
44
0
255
18
0
0
0
33
255
0
0
0
0
84
255
0
0
0
0
134
255
0
0
0
0
185
255
0
211
255
0
236
255
0
255
249
0
255
223
0
0
0
0
255
173
0
0
0
0
255
121
0
0
0
0
0
0
0
255
0
239
0
0
0
220
0
255
0
0
0
0
0
0
0
0
0
0
0
0
0
0
0
0
0
0
0
0
0
16
0
255
0
0
0
0
35
255
0
0
0
0
85
255
0
0
0
0
0
0
0
0
0
0
0
0
0
0
0
0
0
0
0
255
246
0
255
222
0
255
196
0
255
170
0
255
145
0
0
0
0
0
0
0
0
0
0
0
0
0
0
0
0
0
0
33
255
0
0
0
0
84
255
0
0
0
0
135
255
0
0
0
0
0
0
0
0
0
0
0
0
0
0
0
0
0
0
0
0
0
0
255
172
0
0
0
0
255
121
0
0
0
0
0
0
0
255
0
239
0
0
0
220
0
255
195
0
255
169
0
255
144
0
255
0
0
0
93
0
255
67
0
255
42
0
255
17
0
255
0
0
0
0
34
255
0
0
0
0
85
255
0
111
255
0
136
255
0
161
255
0
0
0
0
213
255
0
0
0
0
255
247
0
0
0
0
0
0
0
0
0
0
255
145
0
0
0
0
255
94
0
0
0
0
255
43
0
255
18
7
255
0
33
255
0
0
0
0
84
255
0
0
0
0
135
255
0
160
255
0
186
255
0
211
255
0
0
0
0
255
248
0
255
223
0
255
197
0
255
172
0
0
0
0
255
121
0
0
0
0
0
0
0
255
0
240
0
0
0
0
0
0
0
0
0
0
0
0
0
0
0
0
0
0
0
0
0
0
0
0
0
0
0
0
0
0
0
9
255
0
35
255
0
60
255
0
0
0
0
0
0
0
0
0
0
0
0
0
0
0
0
0
0
0
0
0
0
255
247
0
255
221
0
255
196
0
255
170
0
255
145
0
0
0
0
0
0
0
0
0
0
0
0
0
0
0
0
0
0
0
0
0
59
255
0
84
255
0
109
255
0
0
0
0
0
0
0
0
0
0
0
0
0
0
0
0
0
0
0
0
0
0
0
0
0
0
0
0
0
0
0
255
121
0
0
0
0
0
0
0
255
0
240
0
0
0
0
0
0
194
0
255
169
0
255
143
0
255
0
0
0
93
0
255
67
0
255
42
0
255
17
0
255
0
9
255
0
0
0
0
60
255
0
85
255
0
111
255
0
136
255
0
162
255
0
0
0
0
212
255
0
238
255
0
255
246
0
0
0
0
0
0
0
0
0
0
255
145
0
255
120
0
255
95
0
0
0
0
255
43
0
255
18
8
255
0
33
255
0
59
255
0
0
0
0
109
255
0
135
255
0
161
255
0
186
255
0
211
255
0
0
0
0
255
249
0
255
223
0
255
197
0
0
0
0
0
0
0
255
121
0
0
0
0
0
0
0
255
0
240
0
0
0
0
0
0
195
0
255
0
0
0
0
0
0
0
0
0
0
0
0
0
0
0
0
0
0
0
0
0
0
9
255
0
35
255
0
60
255
0
0
0
0
0
0
0
0
0
0
0
0
0
0
0
0
0
0
0
0
0
0
0
0
0
0
0
0
255
195
0
0
0
0
0
0
0
0
0
0
0
0
0
0
0
0
0
0
0
0
0
0
0
0
0
0
0
58
255
0
84
255
0
110
255
0
0
0
0
0
0
0
0
0
0
0
0
0
0
0
0
0
0
0
0
0
0
255
197
0
0
0
0
0
0
0
255
121
0
0
0
0
0
0
0
255
0
240
0
0
0
0
0
0
195
0
255
0
0
0
143
0
255
0
0
0
92
0
255
67
0
255
42
0
255
16
0
255
0
0
0
0
34
255
0
0
0
0
86
255
0
111
255
0
136
255
0
162
255
0
0
0
0
213
255
0
238
255
0
255
246
0
255
221
0
0
0
0
255
170
0
255
145
0
255
120
0
255
94
0
0
0
0
255
43
0
255
18
8
255
0
33
255
0
0
0
0
84
255
0
0
0
0
134
255
0
160
255
0
185
255
0
211
255
0
0
0
0
255
248
0
0
0
0
255
197
0
0
0
0
0
0
0
255
121
0
0
0
0
0
0
0
255
0
240
0
0
0
0
0
0
194
0
255
0
0
0
0
0
0
0
0
0
0
0
0
0
0
0
0
0
0
16
0
255
0
0
0
0
35
255
0
0
0
0
86
255
0
0
0
0
0
0
0
0
0
0
0
0
0
0
0
0
0
0
0
0
0
0
255
221
0
0
0
0
255
171
0
0
0
0
0
0
0
0
0
0
0
0
0
0
0
0
0
0
0
0
0
33
255
0
0
0
0
84
255
0
0
0
0
135
255
0
0
0
0
0
0
0
0
0
0
0
0
0
0
0
0
0
0
0
255
197
0
0
0
0
0
0
0
255
121
0
0
0
0
0
0
0
255
0
240
0
0
0
0
0
0
0
0
0
0
0
0
143
0
255
0
0
0
92
0
255
67
0
255
0
0
0
16
0
255
0
0
0
0
34
255
0
0
0
0
86
255
0
0
0
0
136
255
0
162
255
0
187
255
0
213
255
0
238
255
0
0
0
0
255
220
0
0
0
0
255
170
0
0
0
0
255
119
0
255
94
0
255
68
0
255
43
0
255
17
0
0
0
33
255
0
0
0
0
84
255
0
0
0
0
135
255
0
0
0
0
186
255
0
212
255
0
0
0
0
255
248
0
0
0
0
0
0
0
0
0
0
0
0
0
255
120
0
0
0
0
0
0
0
255
0
240
0
0
0
219
0
255
194
0
255
168
0
255
0
0
0
0
0
0
0
0
0
67
0
255
0
0
0
16
0
255
0
0
0
0
35
255
0
0
0
0
86
255
0
0
0
0
137
255
0
0
0
0
0
0
0
0
0
0
238
255
0
0
0
0
255
220
0
0
0
0
255
170
0
0
0
0
255
120
0
0
0
0
0
0
0
0
0
0
255
18
0
0
0
33
255
0
0
0
0
85
255
0
0
0
0
135
255
0
0
0
0
185
255
0
0
0
0
0
0
0
0
0
0
255
222
0
255
197
0
255
172
0
0
0
0
255
121
0
0
0
0
0
0
0
255
0
240
0
0
0
219
0
255
0
0
0
0
0
0
0
0
0
117
0
255
0
0
0
66
0
255
0
0
0
0
0
0
0
0
0
0
0
0
0
0
0
0
0
0
0
0
0
0
0
0
0
0
0
0
187
255
0
0
0
0
239
255
0
0
0
0
255
221
0
0
0
0
255
170
0
0
0
0
255
119
0
0
0
0
255
68
0
0
0
0
0
0
0
0
0
0
0
0
0
0
0
0
0
0
0
0
0
0
0
0
0
0
0
186
255
0
0
0
0
237
255
0
0
0
0
0
0
0
0
0
0
255
171
0
0
0
0
255
120
0
0
0
0
0
0
0
255
0
240
0
0
0
219
0
255
0
0
0
168
0
255
0
0
0
0
0
0
0
0
0
67
0
255
0
0
0
16
0
255
0
0
0
0
35
255
0
0
0
0
86
255
0
0
0
0
137
255
0
0
0
0
0
0
0
0
0
0
239
255
0
0
0
0
255
220
0
0
0
0
255
169
0
0
0
0
255
119
0
0
0
0
0
0
0
0
0
0
255
17
0
0
0
33
255
0
0
0
0
84
255
0
0
0
0
135
255
0
0
0
0
186
255
0
0
0
0
0
0
0
0
0
0
255
222
0
0
0
0
255
171
0
0
0
0
255
121
0
0
0
0
0
0
0
255
0
240
0
0
0
219
0
255
0
0
0
168
0
255
142
0
255
117
0
255
92
0
255
67
0
255
0
0
0
16
0
255
0
0
0
0
36
255
0
0
0
0
0
0
0
0
0
0
0
0
0
162
255
0
0
0
0
214
255
0
238
255
0
0
0
0
255
221
0
0
0
0
255
169
0
0
0
0
255
119
0
255
93
0
0
0
0
255
42
0
0
0
0
0
0
0
0
0
0
0
0
85
255
0
0
0
0
136
255
0
0
0
0
186
255
0
212
255
0
237
255
0
255
247
0
255
222
0
0
0
0
255
171
0
0
0
0
255
121
0
0
0
0
0
0
0
255
0
240
0
0
0
219
0
255
0
0
0
0
0
0
0
0
0
0
0
0
0
0
0
0
0
0
0
0
0
15
0
255
0
0
0
0
35
255
0
61
255
0
86
255
0
111
255
0
0
0
0
162
255
0
0
0
0
0
0
0
0
0
0
0
0
0
255
220
0
0
0
0
255
169
0
0
0
0
0
0
0
0
0
0
0
0
0
255
43
0
0
0
9
255
0
33
255
0
59
255
0
85
255
0
0
0
0
135
255
0
0
0
0
0
0
0
0
0
0
0
0
0
0
0
0
0
0
0
0
0
0
255
171
0
0
0
0
255
120
0
0
0
0
255
0
214
255
0
241
0
0
0
219
0
255
193
0
255
168
0
255
143
0
255
117
0
255
92
0
255
67
0
255
41
0
255
16
0
255
0
0
0
0
0
0
0
60
255
0
0
0
0
112
255
0
0
0
0
162
255
0
188
255
0
213
255
0
239
255
0
255
246
0
255
221
0
0
0
0
255
169
0
255
144
0
255
118
0
255
93
0
255
68
0
255
42
0
0
0
9
255
0
0
0
0
59
255
0
0
0
0
0
0
0
136
255
0
160
255
0
186
255
0
212
255
0
237
255
0
255
247
0
255
222
0
255
197
0
255
171
0
0
0
0
255
120
0
255
95
0
0
0
0
0
0
0
0
0
0
0
0
0
0
0
0
0
0
0
0
0
0
0
0
0
0
0
0
0
0
0
0
0
0
0
0
0
0
10
255
0
0
0
0
61
255
0
0
0
0
111
255
0
0
0
0
0
0
0
0
0
0
0
0
0
0
0
0
0
0
0
0
0
0
0
0
0
0
0
0
0
0
0
0
0
0
0
0
0
0
0
0
0
0
0
0
0
8
255
0
0
0
0
60
255
0
0
0
0
110
255
0
0
0
0
0
0
0
0
0
0
0
0
0
0
0
0
0
0
0
0
0
0
0
0
0
0
0
0
0
0
0
0
0
0
0
0
0
255
0
215
255
0
241
0
0
0
218
0
255
194
0
255
168
0
255
143
0
255
117
0
255
91
0
255
67
0
255
41
0
255
16
0
255
0
0
0
0
0
0
0
60
255
0
0
0
0
112
255
0
0
0
0
162
255
0
188
255
0
213
255
0
239
255
0
255
246
0
255
220
0
0
0
0
255
169
0
255
144
0
255
119
0
255
93
0
255
68
0
255
42
0
0
0
9
255
0
0
0
0
59
255
0
0
0
0
0
0
0
136
255
0
161
255
0
186
255
0
211
255
0
237
255
0
255
247
0
255
222
0
255
197
0
255
171
0
0
0
0
255
120
0
255
95
0
0
0
0
255
0
240
0
0
0
219
0
255
0
0
0
0
0
0
0
0
0
0
0
0
0
0
0
0
0
0
0
0
0
15
0
255
0
0
0
0
36
255
0
61
255
0
86
255
0
112
255
0
0
0
0
163
255
0
0
0
0
0
0
0
0
0
0
0
0
0
255
221
0
0
0
0
255
169
0
0
0
0
0
0
0
0
0
0
0
0
0
255
42
0
0
0
9
255
0
34
255
0
59
255
0
85
255
0
0
0
0
136
255
0
0
0
0
0
0
0
0
0
0
0
0
0
0
0
0
0
0
0
0
0
0
255
171
0
0
0
0
255
120
0
0
0
0
0
0
0
255
0
240
0
0
0
219
0
255
0
0
0
168
0
255
142
0
255
117
0
255
92
0
255
66
0
255
0
0
0
15
0
255
0
0
0
0
36
255
0
0
0
0
0
0
0
0
0
0
0
0
0
163
255
0
0
0
0
213
255
0
239
255
0
0
0
0
255
220
0
0
0
0
255
170
0
0
0
0
255
119
0
255
93
0
0
0
0
255
43
0
0
0
0
0
0
0
0
0
0
0
0
85
255
0
0
0
0
135
255
0
0
0
0
186
255
0
212
255
0
238
255
0
255
247
0
255
221
0
0
0
0
255
171
0
0
0
0
255
120
0
0
0
0
0
0
0
255
0
241
0
0
0
219
0
255
0
0
0
168
0
255
0
0
0
0
0
0
0
0
0
66
0
255
0
0
0
15
0
255
0
0
0
0
36
255
0
0
0
0
86
255
0
0
0
0
137
255
0
0
0
0
0
0
0
0
0
0
239
255
0
0
0
0
255
220
0
0
0
0
255
170
0
0
0
0
255
118
0
0
0
0
0
0
0
0
0
0
255
17
0
0
0
34
255
0
0
0
0
85
255
0
0
0
0
136
255
0
0
0
0
187
255
0
0
0
0
0
0
0
0
0
0
255
222
0
0
0
0
255
171
0
0
0
0
255
120
0
0
0
0
0
0
0
255
0
241
0
0
0
218
0
255
0
0
0
0
0
0
0
0
0
116
0
255
0
0
0
66
0
255
0
0
0
0
0
0
0
0
0
0
0
0
0
0
0
0
0
0
0
0
0
0
0
0
0
0
0
0
188
255
0
0
0
0
239
255
0
0
0
0
255
220
0
0
0
0
255
169
0
0
0
0
255
118
0
0
0
0
255
68
0
0
0
0
0
0
0
0
0
0
0
0
0
0
0
0
0
0
0
0
0
0
0
0
0
0
0
187
255
0
0
0
0
237
255
0
0
0
0
0
0
0
0
0
0
255
171
0
0
0
0
255
119
0
0
0
0
0
0
0
255
0
241
0
0
0
218
0
255
193
0
255
168
0
255
0
0
0
0
0
0
0
0
0
66
0
255
0
0
0
15
0
255
0
0
0
0
36
255
0
0
0
0
87
255
0
0
0
0
137
255
0
0
0
0
0
0
0
0
0
0
240
255
0
0
0
0
255
220
0
0
0
0
255
169
0
0
0
0
255
118
0
0
0
0
0
0
0
0
0
0
255
16
0
0
0
34
255
0
0
0
0
85
255
0
0
0
0
136
255
0
0
0
0
187
255
0
0
0
0
0
0
0
0
0
0
255
222
0
255
196
0
255
170
0
0
0
0
255
119
0
0
0
0
0
0
0
255
0
240
0
0
0
0
0
0
0
0
0
0
0
0
142
0
255
0
0
0
91
0
255
66
0
255
0
0
0
15
0
255
0
0
0
0
36
255
0
0
0
0
87
255
0
0
0
0
137
255
0
163
255
0
189
255
0
214
255
0
239
255
0
0
0
0
255
220
0
0
0
0
255
169
0
0
0
0
255
118
0
255
92
0
255
68
0
255
42
0
255
16
0
0
0
35
255
0
0
0
0
85
255
0
0
0
0
136
255
0
0
0
0
187
255
0
212
255
0
0
0
0
255
246
0
0
0
0
0
0
0
0
0
0
0
0
0
255
120
0
0
0
0
0
0
0
255
0
241
0
0
0
0
0
0
193
0
255
0
0
0
0
0
0
0
0
0
0
0
0
0
0
0
0
0
0
14
0
255
0
0
0
0
36
255
0
0
0
0
87
255
0
0
0
0
0
0
0
0
0
0
0
0
0
0
0
0
0
0
0
0
0
0
255
220
0
0
0
0
255
169
0
0
0
0
0
0
0
0
0
0
0
0
0
0
0
0
0
0
0
0
0
34
255
0
0
0
0
86
255
0
0
0
0
136
255
0
0
0
0
0
0
0
0
0
0
0
0
0
0
0
0
0
0
0
255
196
0
0
0
0
0
0
0
255
119
0
0
0
0
0
0
0
255
0
241
0
0
0
0
0
0
192
0
255
0
0
0
141
0
255
0
0
0
91
0
255
66
0
255
40
0
255
14
0
255
0
0
0
0
36
255
0
0
0
0
87
255
0
113
255
0
137
255
0
163
255
0
0
0
0
214
255
0
240
255
0
255
245
0
255
219
0
0
0
0
255
169
0
255
144
0
255
118
0
255
93
0
0
0
0
255
42
0
255
16
9
255
0
35
255
0
0
0
0
85
255
0
0
0
0
136
255
0
162
255
0
187
255
0
213
255
0
0
0
0
255
246
0
0
0
0
255
196
0
0
0
0
0
0
0
255
119
0
0
0
0
0
0
0
255
0
241
0
0
0
0
0
0
192
0
255
0
0
0
0
0
0
0
0
0
0
0
0
0
0
0
0
0
0
0
0
0
0
11
255
0
36
255
0
62
255
0
0
0
0
0
0
0
0
0
0
0
0
0
0
0
0
0
0
0
0
0
0
0
0
0
0
0
0
255
194
0
0
0
0
0
0
0
0
0
0
0
0
0
0
0
0
0
0
0
0
0
0
0
0
0
0
0
60
255
0
86
255
0
111
255
0
0
0
0
0
0
0
0
0
0
0
0
0
0
0
0
0
0
0
0
0
0
255
195
0
0
0
0
0
0
0
255
120
0
0
0
0
0
0
0
255
0
241
0
0
0
0
0
0
192
0
255
167
0
255
142
0
255
0
0
0
90
0
255
65
0
255
40
0
255
14
0
255
0
11
255
0
0
0
0
62
255
0
87
255
0
112
255
0
138
255
0
163
255
0
0
0
0
215
255
0
240
255
0
255
245
0
0
0
0
0
0
0
0
0
0
255
144
0
255
117
0
255
93
0
0
0
0
255
41
0
255
16
10
255
0
35
255
0
60
255
0
0
0
0
111
255
0
137
255
0
162
255
0
188
255
0
212
255
0
0
0
0
255
247
0
255
221
0
255
195
0
0
0
0
0
0
0
255
119
0
0
0
0
0
0
0
255
0
241
0
0
0
0
0
0
0
0
0
0
0
0
0
0
0
0
0
0
0
0
0
0
0
0
0
0
0
0
0
0
0
11
255
0
37
255
0
62
255
0
0
0
0
0
0
0
0
0
0
0
0
0
0
0
0
0
0
0
0
0
0
255
244
0
255
219
0
255
194
0
255
169
0
255
143
0
0
0
0
0
0
0
0
0
0
0
0
0
0
0
0
0
0
0
0
0
60
255
0
85
255
0
111
255
0
0
0
0
0
0
0
0
0
0
0
0
0
0
0
0
0
0
0
0
0
0
0
0
0
0
0
0
0
0
0
255
120
0
0
0
0
0
0
0
255
0
241
0
0
0
218
0
255
193
0
255
167
0
255
141
0
255
0
0
0
90
0
255
65
0
255
40
0
255
15
0
255
0
0
0
0
36
255
0
0
0
0
87
255
0
113
255
0
138
255
0
164
255
0
0
0
0
215
255
0
0
0
0
255
245
0
0
0
0
0
0
0
0
0
0
255
143
0
0
0
0
255
92
0
0
0
0
255
42
0
255
16
9
255
0
35
255
0
0
0
0
86
255
0
0
0
0
137
255
0
162
255
0
187
255
0
212
255
0
0
0
0
255
246
0
255
221
0
255
195
0
255
170
0
0
0
0
255
119
0
0
0
0
0
0
0
255
0
242
0
0
0
217
0
255
0
0
0
0
0
0
0
0
0
0
0
0
0
0
0
0
0
0
0
0
0
14
0
255
0
0
0
0
37
255
0
0
0
0
88
255
0
0
0
0
0
0
0
0
0
0
0
0
0
0
0
0
0
0
0
255
245
0
255
220
0
255
193
0
255
168
0
255
143
0
0
0
0
0
0
0
0
0
0
0
0
0
0
0
0
0
0
35
255
0
0
0
0
86
255
0
0
0
0
136
255
0
0
0
0
0
0
0
0
0
0
0
0
0
0
0
0
0
0
0
0
0
0
255
170
0
0
0
0
255
119
0
0
0
0
0
0
0
255
0
241
0
0
0
217
0
255
0
0
0
167
0
255
141
0
255
116
0
255
91
0
255
65
0
255
0
0
0
15
0
255
0
0
0
0
37
255
0
0
0
0
88
255
0
0
0
0
138
255
0
163
255
0
0
0
0
215
255
0
0
0
0
0
0
0
0
0
0
0
0
0
0
0
0
0
0
0
0
0
0
255
92
0
0
0
0
255
41
0
255
16
0
0
0
35
255
0
0
0
0
86
255
0
0
0
0
136
255
0
0
0
0
188
255
0
213
255
0
239
255
0
255
246
0
255
221
0
0
0
0
255
169
0
0
0
0
255
119
0
0
0
0
0
0
0
255
0
242
0
0
0
217
0
255
0
0
0
167
0
255
0
0
0
0
0
0
0
0
0
66
0
255
0
0
0
14
0
255
0
0
0
0
37
255
0
0
0
0
87
255
0
0
0
0
138
255
0
0
0
0
0
0
0
0
0
0
241
255
0
255
245
0
255
219
0
0
0
0
255
168
0
255
143
0
255
117
0
0
0
0
0
0
0
0
0
0
255
15
0
0
0
35
255
0
0
0
0
86
255
0
0
0
0
137
255
0
0
0
0
187
255
0
0
0
0
0
0
0
0
0
0
255
221
0
0
0
0
255
170
0
0
0
0
255
118
0
0
0
0
255
0
216
255
0
242
0
0
0
217
0
255
0
0
0
167
0
255
0
0
0
116
0
255
0
0
0
0
0
0
0
0
0
0
0
0
0
0
0
0
0
0
0
0
0
0
0
0
0
0
0
0
139
255
0
0
0
0
189
255
0
0
0
0
0
0
0
0
0
0
255
219
0
0
0
0
255
168
0
0
0
0
0
0
0
0
0
0
255
66
0
0
0
0
255
15
0
0
0
0
0
0
0
0
0
0
0
0
0
0
0
0
0
0
0
0
0
0
0
0
0
0
0
238
255
0
0
0
0
255
220
0
0
0
0
255
170
0
0
0
0
255
119
0
255
94
0
0
0
0
255
0
242
0
0
0
217
0
255
0
0
0
166
0
255
0
0
0
0
0
0
0
0
0
65
0
255
0
0
0
14
0
255
0
0
0
0
36
255
0
0
0
0
87
255
0
0
0
0
138
255
0
0
0
0
0
0
0
0
0
0
240
255
0
0
0
0
255
219
0
0
0
0
255
168
0
0
0
0
255
117
0
0
0
0
0
0
0
0
0
0
255
15
0
0
0
36
255
0
0
0
0
86
255
0
0
0
0
137
255
0
0
0
0
187
255
0
0
0
0
0
0
0
0
0
0
255
221
0
0
0
0
255
169
0
0
0
0
255
119
0
0
0
0
255
0
217
255
0
242
0
0
0
218
0
255
0
0
0
167
0
255
142
0
255
0
0
0
90
0
255
0
0
0
0
0
0
0
0
0
0
0
0
0
37
255
0
0
0
0
87
255
0
0
0
0
138
255
0
164
255
0
189
255
0
215
255
0
241
255
0
0
0
0
255
219
0
0
0
0
255
168
0
0
0
0
255
117
0
255
92
0
255
67
0
255
41
0
255
15
0
0
0
36
255
0
0
0
0
86
255
0
0
0
0
0
0
0
0
0
0
0
0
0
213
255
0
0
0
0
255
246
0
255
220
0
0
0
0
255
169
0
0
0
0
255
119
0
255
93
0
0
0
0
0
0
0
0
0
0
217
0
255
0
0
0
0
0
0
0
0
0
0
0
0
90
0
255
0
0
0
39
0
255
13
0
255
0
11
255
0
37
255
0
0
0
0
88
255
0
0
0
0
0
0
0
0
0
0
0
0
0
0
0
0
0
0
0
0
0
0
255
218
0
0
0
0
255
168
0
0
0
0
0
0
0
0
0
0
0
0
0
0
0
0
0
0
0
0
0
36
255
0
0
0
0
86
255
0
112
255
0
137
255
0
162
255
0
0
0
0
213
255
0
0
0
0
0
0
0
0
0
0
0
0
0
255
169
0
0
0
0
0
0
0
0
0
0
255
0
216
255
0
242
0
0
0
217
0
255
192
0
255
166
0
255
141
0
255
115
0
255
90
0
255
0
0
0
0
0
0
0
0
0
0
0
0
0
0
0
0
0
0
0
88
255
0
114
255
0
139
255
0
165
255
0
190
255
0
215
255
0
241
255
0
255
245
0
255
219
0
0
0
0
255
168
0
255
143
0
255
117
0
255
91
0
255
66
0
255
41
0
255
16
10
255
0
35
255
0
0
0
0
0
0
0
0
0
0
0
0
0
0
0
0
0
0
0
213
255
0
239
255
0
255
246
0
255
221
0
255
195
0
255
170
0
0
0
0
255
119
0
255
93
0
0
0
0
0
0
0
243
0
255
0
0
0
0
0
0
0
0
0
0
0
0
0
0
0
0
0
0
0
0
0
0
0
0
0
0
0
0
0
0
0
0
0
0
0
0
0
0
0
0
0
0
0
0
0
0
0
0
0
0
0
0
0
0
0
0
0
0
0
0
0
0
0
0
0
0
0
0
0
0
0
0
0
0
0
0
0
0
0
0
0
0
0
0
0
0
0
0
0
0
0
0
0
0
0
0
0
0
0
0
0
0
0
0
0
0
0
0
0
0
0
0
0
0
0
0
0
0
0
0
0
0
0
0
0
0
0
0
0
255
144
0
0
0
0
0
0
0
255
0
216
255
0
242
0
0
0
217
0
255
0
0
0
166
0
255
141
0
255
116
0
255
90
0
255
65
0
255
39
0
255
14
0
255
0
11
255
0
38
255
0
63
255
0
88
255
0
113
255
0
139
255
0
164
255
0
190
255
0
215
255
0
241
255
0
255
244
0
255
219
0
0
0
0
255
168
0
255
142
0
255
117
0
255
92
0
255
66
0
255
41
0
255
16
10
255
0
35
255
0
61
255
0
87
255
0
112
255
0
138
255
0
163
255
0
188
255
0
213
255
0
240
255
0
255
245
0
255
220
0
0
0
0
255
170
0
0
0
0
255
118
0
255
93
0
0
0
0
255
0
243
0
0
0
217
0
255
0
0
0
166
0
255
0
0
0
115
0
255
0
0
0
0
0
0
0
0
0
0
0
0
0
0
0
0
0
0
0
0
0
0
0
0
0
0
0
0
0
0
0
0
0
0
0
0
0
0
0
0
0
0
0
0
0
0
255
219
0
0
0
0
255
168
0
0
0
0
0
0
0
0
0
0
0
0
0
0
0
0
0
0
0
0
0
0
0
0
0
0
0
0
0
0
0
0
0
0
0
0
0
0
0
0
0
0
0
0
0
239
255
0
0
0
0
255
220
0
0
0
0
255
169
0
0
0
0
255
118
0
0
0
0
