P3
50 50
255
255
255
255
255
255
255
255
255
255
255
255
255
255
255
255
255
255
255
255
255
255
255
255
255
255
255
255
255
255
255
255
255
255
254
254
254
253
253
253
252
252
252
252
252
252
252
252
252
253
252
253
252
253
252
252
253
252
252
253
252
249
250
249
245
245
245
239
240
240
236
236
237
234
234
234
232
233
233
232
233
234
236
236
236
240
241
241
246
247
247
253
253
253
255
255
255
255
255
255
255
255
255
255
255
255
255
255
255
255
255
255
255
255
255
255
255
255
255
255
255
255
255
255
254
254
254
253
253
253
253
253
253
253
253
253
252
252
252
249
249
249
241
242
241
234
235
234
229
231
229
255
255
255
255
255
255
255
255
255
255
255
255
255
255
255
255
255
255
255
255
255
255
255
255
255
255
255
255
255
255
254
254
254
254
254
254
253
253
253
252
252
252
252
252
252
252
252
252
250
249
250
239
239
240
227
228
229
217
218
219
210
211
212
206
207
208
202
204
206
200
201
203
198
199
201
195
197
198
193
194
196
191
192
194
188
190
191
188
190
191
194
195
197
206
207
208
225
226
227
246
246
246
255
255
255
255
255
255
255
255
255
255
255
255
255
255
255
255
255
255
255
255
255
254
254
254
254
254
254
253
253
253
253
253
253
253
253
253
249
249
249
242
243
242
235
237
235
231
233
231
255
255
255
255
255
255
255
255
255
255
255
255
255
255
255
255
255
255
255
255
255
255
255
255
255
255
255
254
254
254
254
254
254
253
253
253
252
252
252
252
252
252
247
246
247
233
232
234
221
222
223
216
217
218
214
215
216
211
212
213
209
210
211
207
208
209
204
206
207
202
203
205
200
201
203
197
199
200
195
196
198
193
194
196
190
192
193
188
190
191
186
187
189
183
185
187
181
183
185
183
185
186
203
204
206
235
235
236
255
255
255
255
255
255
255
255
255
255
255
255
255
255
255
254
254
254
254
254
254
254
254
254
253
253
254
253
253
254
250
250
250
243
244
243
237
239
237
234
236
234
255
255
255
255
255
255
255
255
255
255
255
255
255
255
255
255
255
255
255
255
255
255
255
255
255
255
255
254
254
254
254
254
254
253
253
253
248
248
248
234
234
236
223
224
224
221
221
222
218
219
220
216
217
218
214
215
216
211
212
213
209
210
211
207
208
209
204
206
207
202
203
205
200
201
203
197
199
200
195
196
198
193
194
196
190
192
193
188
190
191
186
187
189
183
185
187
181
183
185
179
181
182
176
178
180
174
176
178
194
196
197
235
236
236
255
255
255
255
255
255
255
255
255
255
255
255
254
254
254
254
254
254
254
254
254
254
253
254
251
251
251
246
246
245
241
242
240
238
240
237
255
255
255
255
255
255
255
255
255
255
255
255
255
255
255
255
255
255
255
255
255
255
255
255
255
255
255
254
254
254
254
254
254
242
242
243
228
228
230
225
226
227
223
224
224
221
221
222
218
219
220
216
217
218
214
215
216
211
212
213
209
210
211
207
208
209
204
206
207
202
203
205
200
201
203
197
199
200
195
196
198
193
194
196
190
192
193
188
190
191
186
187
189
183
185
187
181
183
185
179
181
182
176
178
180
174
176
178
169
171
173
165
167
169
201
202
203
250
251
251
255
255
255
255
255
255
254
254
254
254
254
254
254
254
254
254
253
254
252
251
252
247
247
247
243
244
243
241
242
240
255
255
255
255
255
255
255
255
255
255
255
255
255
255
255
255
255
255
255
255
255
255
255
255
255
255
255
252
253
252
238
239
239
230
230
231
227
228
229
225
226
227
223
224
224
221
221
222
218
219
220
216
217
218
214
215
216
211
212
213
209
210
211
207
208
209
204
206
207
202
203
205
200
201
203
197
199
200
195
196
198
193
194
196
190
192
193
188
190
191
186
187
189
183
185
187
181
183
185
179
181
182
176
178
180
174
176
178
169
171
173
163
165
167
156
158
160
170
171
173
235
236
236
255
255
255
254
254
254
254
254
254
254
254
254
254
254
254
252
252
252
248
249
248
245
245
245
243
243
243
255
255
255
255
255
255
255
255
255
255
255
255
255
255
255
255
255
255
255
255
255
255
255
255
251
251
252
237
238
238
232
233
233
230
230
231
227
228
229
225
226
227
223
224
224
221
221
222
218
219
220
216
217
218
214
215
216
211
212
213
209
210
211
207
208
209
204
206
207
202
203
205
200
201
203
197
199
200
195
196
198
193
194
196
190
192
193
188
190
191
186
187
189
183
185
187
181
183
185
179
181
182
176
178
180
174
176
178
169
171
173
163
165
167
156
158
160
150
152
154
150
152
154
220
221
221
255
255
255
255
254
255
254
254
254
253
254
253
251
252
251
249
249
249
246
246
246
245
245
245
255
255
255
255
255
255
255
255
255
255
255
255
255
255
255
255
255
255
255
255
255
251
251
251
238
238
239
234
235
235
232
233
233
230
230
231
227
228
229
225
226
227
223
224
224
221
221
222
218
219
220
216
217
218
214
215
216
211
212
213
209
210
211
207
208
209
204
206
207
202
203
205
200
201
203
197
199
200
195
196
198
193
194
196
190
192
193
188
190
191
186
187
189
183
185
187
181
183
185
179
181
182
176
178
180
174
176
178
169
171
173
163
165
167
155
157
159
161
163
165
146
148
150
136
138
140
215
215
216
255
255
255
254
254
254
253
254
253
251
252
251
250
250
250
248
248
248
247
247
247
255
255
255
255
255
255
255
255
255
255
255
255
255
255
255
255
255
255
252
252
253
240
240
241
237
237
238
234
235
235
232
233
233
230
230
231
227
228
229
225
226
227
223
224
224
221
221
222
218
219
220
216
217
218
214
215
216
211
212
213
209
210
211
207
208
209
204
206
207
202
203
205
200
201
203
197
199
200
195
196
198
193
194
196
190
192
193
188
190
191
186
187
189
183
185
187
181
183
185
179
181
182
176
178
180
174
176
178
169
171
173
163
165
167
155
157
159
157
159
161
171
173
174
134
136
138
132
134
136
221
222
223
255
255
255
254
254
254
252
252
252
250
250
250
249
249
249
249
248
249
255
255
255
255
255
255
255
255
255
255
255
255
255
255
255
254
254
254
244
244
244
239
239
240
237
237
238
234
235
235
232
233
233
230
230
231
227
228
229
225
226
227
223
224
224
221
221
222
218
219
220
216
217
218
214
215
216
211
212
213
209
210
211
207
208
209
204
206
207
202
203
205
200
201
203
197
199
200
195
196
198
193
194
196
190
192
193
188
190
191
186
187
189
183
185
187
181
183
185
179
181
182
176
178
180
174
176
178
169
171
173
163
165
167
156
158
160
146
148
150
177
179
180
162
164
165
125
127
130
128
130
132
230
230
230
254
254
254
253
253
253
251
251
251
250
249
250
250
249
250
255
255
255
255
255
255
255
255
255
255
255
255
255
255
255
247
247
247
241
242
242
239
239
240
237
237
238
234
235
235
232
233
233
230
230
231
227
228
229
225
226
227
223
224
224
221
221
222
218
219
220
216
217
218
214
215
216
211
212
213
209
210
211
207
208
209
204
206
207
202
203
205
200
201
203
197
199
200
195
196
198
193
194
196
190
192
193
188
190
191
186
187
189
183
185
187
181
183
185
179
181
182
176
178
180
174
176
178
169
171
173
163
165
167
156
158
160
147
149
151
154
156
157
196
197
198
139
141
143
121
123
125
139
141
142
247
247
247
253
253
253
251
252
251
250
250
250
250
249
250
255
255
255
255
255
255
255
255
255
255
255
255
251
251
251
244
244
244
241
242
242
239
239
240
237
237
238
234
235
235
232
233
233
230
230
231
227
228
229
225
226
227
223
224
224
221
221
222
218
219
220
216
217
218
214
215
216
211
212
213
209
210
211
207
208
209
204
206
207
202
203
205
200
201
203
197
199
200
195
196
198
193
194
196
191
193
194
190
192
193
189
190
192
187
189
191
186
188
190
184
187
188
181
184
186
179
181
183
173
176
178
166
169
171
158
160
162
150
152
154
141
143
145
187
188
190
181
182
183
120
122
124
116
118
120
170
171
173
254
254
254
252
252
252
251
251
251
250
250
250
255
255
255
255
255
255
255
255
255
254
254
254
246
246
247
244
244
244
241
242
242
239
239
240
237
237
238
234
235
235
232
233
233
230
230
231
227
228
229
225
226
227
223
224
224
221
221
222
218
219
220
216
217
218
214
215
216
211
212
213
209
210
211
207
208
209
204
206
207
203
204
206
204
205
207
205
207
208
205
206
208
202
203
205
194
196
197
184
186
187
173
174
176
164
165
167
156
157
159
151
152
153
147
148
150
148
149
151
147
148
150
147
148
150
146
148
150
146
147
149
140
142
144
163
165
167
209
210
211
145
147
148
114
116
118
110
112
114
219
219
219
252
252
252
251
251
251
250
250
250
255
255
255
255
255
255
255
255
255
250
251
251
246
246
247
244
244
244
241
242
242
239
239
240
237
237
238
235
236
236
236
237
237
237
237
238
235
236
237
230
231
232
224
226
225
221
221
222
218
219
220
216
217
218
214
215
216
211
212
213
211
212
213
214
215
216
215
217
218
207
209
211
186
187
188
155
156
157
123
122
124
95
94
95
75
73
74
61
59
60
54
51
52
50
48
49
49
46
48
50
48
49
52
50
51
55
53
54
58
56
58
63
61
63
68
67
69
75
74
76
81
81
83
98
98
100
189
190
191
180
181
182
109
111
113
109
111
113
139
141
142
250
250
250
250
250
250
250
250
250
255
255
255
255
255
255
254
254
254
248
249
249
246
246
247
244
244
244
241
242
242
239
239
241
246
247
248
243
244
244
218
218
218
194
193
194
188
188
189
203
203
204
225
226
226
232
232
233
220
221
222
216
217
218
220
221
222
223
224
225
210
212
213
173
173
174
122
121
122
75
72
74
44
40
41
30
25
26
26
23
24
30
26
27
35
32
33
39
36
37
44
40
42
47
44
45
49
46
48
51
49
50
55
53
54
57
54
55
58
56
58
61
59
61
63
61
63
64
63
64
65
64
66
62
61
63
147
147
148
196
196
197
105
105
107
81
81
83
92
93
95
207
207
207
251
251
251
250
250
250
255
255
255
255
255
255
253
253
253
248
249
249
246
246
247
244
244
244
244
245
245
250
250
251
185
185
185
86
84
84
38
35
35
27
24
24
24
20
20
30
27
27
67
65
65
145
144
144
219
220
221
227
229
230
189
189
190
122
122
123
61
59
60
27
24
24
19
16
17
24
20
21
30
26
27
35
31
32
36
33
34
39
35
36
41
38
39
43
40
41
46
42
44
48
45
46
50
47
49
52
50
51
55
53
54
57
55
56
59
57
59
62
60
62
64
62
64
66
65
66
68
67
69
64
63
65
115
115
116
202
202
203
150
150
151
72
72
74
81
81
83
129
129
131
251
251
251
250
250
250
255
255
255
255
255
255
251
251
251
248
249
249
246
246
247
247
247
247
248
248
249
121
120
120
27
24
24
79
77
77
131
130
130
147
147
147
142
140
140
110
108
108
44
41
41
12
9
9
79
77
77
94
92
93
29
26
27
14
11
11
21
17
18
28
25
25
30
27
28
32
28
29
33
29
30
35
31
32
36
33
34
39
35
36
41
38
39
42
40
41
44
42
44
44
46
47
45
48
50
46
51
52
48
54
55
50
56
57
53
58
60
56
61
63
59
63
65
61
66
67
64
68
70
64
67
69
87
89
91
189
190
190
186
187
188
88
88
90
80
80
82
87
88
90
225
225
225
251
251
251
255
255
255
254
254
254
251
251
251
248
249
249
247
247
248
254
254
254
118
116
116
42
39
39
158
158
158
191
190
190
192
191
191
189
189
189
180
179
179
172
172
172
173
172
172
96
95
95
18
14
14
22
19
19
23
20
21
26
23
24
28
24
25
29
26
26
30
27
28
32
28
29
33
29
30
32
32
33
28
34
35
28
37
38
31
40
41
39
41
42
52
41
43
65
42
43
78
42
44
89
43
44
97
45
46
102
46
48
104
49
50
105
52
53
102
55
56
98
59
60
94
62
64
88
65
67
85
71
72
174
170
171
204
204
205
116
116
118
74
77
78
83
85
87
172
172
172
252
252
252
255
255
255
254
254
254
251
251
251
248
249
249
255
255
255
175
174
174
40
38
38
175
174
174
203
203
203
224
223
223
232
232
232
228
228
228
220
221
221
203
203
203
165
164
164
174
174
174
96
94
94
25
22
22
31
28
28
26
23
23
28
24
25
28
26
26
24
28
29
20
30
31
24
30
31
44
29
30
77
26
27
114
22
22
147
19
19
171
17
18
185
17
18
191
19
20
192
22
22
189
25
26
184
29
29
179
32
33
173
37
37
166
40
41
160
44
45
153
48
49
146
52
53
139
57
58
126
54
56
177
145
145
217
207
207
162
145
146
91
71
73
91
83
85
124
123
124
252
252
252
255
255
255
253
253
253
251
251
251
250
250
251
248
248
248
71
69
69
130
129
129
209
209
209
240
240
240
243
243
243
239
239
239
232
232
232
223
223
223
215
215
215
212
212
212
162
162
162
166
166
166
50
48
48
31
28
28
25
25
26
15
25
27
22
27
27
56
24
24
110
17
18
166
10
10
207
3
4
229
0
0
231
1
1
224
5
5
215
9
10
206
13
14
198
18
19
191
22
22
185
26
27
178
30
30
172
33
34
166
38
38
160
41
42
154
45
46
148
49
50
142
53
54
136
57
58
125
53
54
164
123
124
217
205
205
189
169
170
106
73
75
101
79
81
99
90
91
241
240
241
255
255
255
253
253
253
251
251
251
255
255
255
206
206
206
57
55
55
188
188
188
231
231
231
248
248
248
252
252
252
248
248
248
238
238
238
228
228
228
217
217
217
208
208
208
200
200
200
161
160
160
107
106
106
22
22
22
43
26
26
108
15
15
179
7
7
225
1
1
240
0
0
238
0
0
231
0
0
226
0
0
220
3
3
214
7
7
208
10
11
202
14
15
196
18
19
190
22
22
184
26
27
178
30
30
172
33
34
166
38
38
160
41
42
154
45
46
148
49
50
142
53
54
136
57
58
126
54
56
152
106
107
214
200
201
201
186
187
113
84
85
98
78
80
88
78
80
221
221
221
255
255
255
253
253
253
251
251
251
255
255
255
167
165
165
77
75
75
207
206
206
238
238
238
248
248
248
255
255
255
250
250
250
239
239
239
228
228
228
218
218
218
207
207
207
210
210
210
165
164
164
132
131
131
16
25
25
102
21
21
252
0
0
241
0
0
233
0
0
228
0
0
227
0
0
226
0
0
225
0
0
220
3
3
214
7
7
208
10
11
202
14
15
196
18
19
190
22
22
184
26
27
178
30
30
172
33
34
166
38
38
160
41
42
154
45
46
148
49
50
142
53
54
136
57
58
127
56
57
144
93
95
210
196
196
209
196
197
123
96
98
97
76
78
88
78
80
202
201
201
255
255
255
253
253
253
251
251
251
255
255
255
154
153
153
83
81
81
210
210
210
235
235
235
241
241
241
246
246
246
243
243
243
235
235
235
226
226
226
216
216
216
206
206
206
210
210
210
169
168
168
135
134
134
20
28
28
92
22
22
240
0
0
231
0
0
230
0
0
228
0
0
227
0
0
226
0
0
225
0
0
220
3
3
214
7
7
208
10
11
202
14
15
196
18
19
190
22
22
184
26
27
178
30
30
172
33
34
166
38
38
160
41
42
154
45
46
148
49
50
142
53
54
136
57
58
127
57
58
139
86
87
208
192
192
213
201
202
132
108
109
95
74
76
88
78
80
187
186
187
255
255
255
253
253
253
251
251
251
255
255
255
176
175
175
73
71
71
201
201
201
228
227
227
232
232
232
235
235
235
233
233
233
228
228
228
220
220
220
211
211
211
204
204
204
210
210
210
166
165
165
125
124
124
15
25
25
103
20
20
243
0
0
231
0
0
230
0
0
228
0
0
227
0
0
226
0
0
225
0
0
220
3
3
214
7
7
208
10
11
202
14
15
196
18
19
190
22
22
184
26
27
178
30
30
172
33
34
166
38
38
160
41
42
154
45
46
148
49
50
142
53
54
136
57
58
128
57
58
136
82
83
206
189
190
215
204
204
139
116
117
95
74
75
88
78
80
176
176
177
255
255
255
253
253
253
251
251
251
255
255
255
187
186
186
43
40
40
177
176
176
215
215
215
224
224
224
224
224
224
223
223
223
219
219
219
212
212
212
206
206
206
205
205
205
201
201
201
159
158
158
93
91
91
12
24
24
145
14
14
244
0
0
231
0
0
230
0
0
228
0
0
227
0
0
226
0
0
225
0
0
220
3
3
214
7
7
208
10
11
202
14
15
196
18
19
190
22
22
184
26
27
178
30
30
172
33
34
166
38
38
160
41
42
154
45
46
148
49
50
142
53
54
136
57
58
128
57
58
136
82
84
206
190
190
216
204
205
143
121
122
95
73
75
88
78
80
172
171
172
255
255
255
253
253
253
255
255
255
206
206
206
33
33
33
13
10
10
118
117
117
198
198
198
213
213
213
214
214
214
212
212
212
209
209
209
205
205
205
205
205
205
211
212
212
168
167
167
146
145
145
37
37
37
36
29
29
207
4
4
238
0
0
231
0
0
230
0
0
228
0
0
227
0
0
226
0
0
225
0
0
220
3
3
214
7
7
208
10
11
202
14
15
196
18
19
190
22
22
184
26
27
178
30
30
172
33
34
166
38
38
160
41
42
154
45
46
148
49
50
142
53
54
136
57
58
127
56
58
140
87
88
208
192
193
216
204
205
143
121
122
95
73
75
88
78
80
172
171
172
255
255
255
255
255
255
210
210
210
27
27
27
0
0
0
11
10
10
37
34
34
144
144
144
191
191
191
202
202
202
207
207
207
208
208
208
208
208
208
202
202
202
172
171
171
156
155
155
67
65
65
11
26
26
124
18
18
245
0
0
232
0
0
231
0
0
230
0
0
228
0
0
227
0
0
226
0
0
225
0
0
220
3
3
214
7
7
208
10
11
202
14
15
196
18
19
190
22
22
184
26
27
178
30
30
172
33
34
166
38
38
160
41
42
154
45
46
148
49
50
142
53
54
136
57
58
126
55
56
147
97
98
211
196
196
215
203
203
139
116
117
95
74
75
88
78
80
176
175
176
255
255
255
226
226
226
34
34
34
0
0
0
5
5
5
5
5
5
6
14
14
28
37
37
118
120
120
171
170
170
183
182
182
184
184
184
178
178
178
163
162
162
137
136
136
62
61
61
10
25
25
82
24
24
232
1
1
237
0
0
232
0
0
231
0
0
230
0
0
228
0
0
227
0
0
226
0
0
225
0
0
220
3
3
214
7
7
208
10
11
202
14
15
196
18
19
190
22
22
184
26
27
178
30
30
172
33
34
166
38
38
160
41
42
154
45
46
148
49
50
142
53
54
136
57
58
125
53
55
158
114
115
213
199
200
213
200
201
132
107
109
96
75
76
88
78
80
186
186
186
243
243
243
56
56
56
0
0
0
4
3
3
3
5
5
0
6
6
98
3
4
151
11
11
32
23
23
42
56
56
84
91
91
101
103
103
95
96
96
66
70
70
22
32
32
18
26
26
102
21
21
228
2
2
241
0
0
233
0
0
232
0
0
231
0
0
230
0
0
228
0
0
227
0
0
226
0
0
225
0
0
220
3
3
214
7
7
208
10
11
202
14
15
196
18
19
190
22
22
184
26
27
178
30
30
172
33
34
166
38
38
160
41
42
154
45
46
148
49
50
142
53
54
136
57
58
125
53
55
174
138
140
214
200
201
207
194
194
120
92
94
97
77
78
88
78
80
200
199
200
228
228
228
10
10
10
2
2
2
1
3
3
0
5
5
124
3
3
255
0
0
255
0
0
215
5
5
121
14
14
58
17
17
36
20
20
33
20
20
50
21
21
97
21
21
180
10
10
245
0
0
241
0
0
235
0
0
233
0
0
232
0
0
231
0
0
230
0
0
228
0
0
227
0
0
226
0
0
225
0
0
220
3
3
214
7
7
208
10
11
202
14
15
196
18
19
190
22
22
184
26
27
178
30
30
172
33
34
166
38
38
160
41
42
154
45
46
148
49
50
142
53
54
136
56
57
131
62
63
193
167
168
214
200
200
193
176
177
107
76
78
99
79
81
88
78
80
220
219
220
250
250
250
40
40
40
0
2
2
0
4
4
144
2
2
255
0
0
253
0
0
248
0
0
254
0
0
255
0
0
243
0
0
223
3
3
219
3
3
232
1
1
249
0
0
248
0
0
238
0
0
236
0
0
235
0
0
233
0
0
232
0
0
231
0
0
230
0
0
228
0
0
227
0
0
226
0
0
225
0
0
220
3
3
214
7
7
208
10
11
202
14
15
196
18
19
190
22
22
184
26
27
178
30
30
172
33
34
166
38
38
160
41
42
154
45
46
148
49
50
142
53
54
133
51
52
148
88
90
206
188
189
215
201
201
168
145
145
100
68
70
100
80
82
97
88
89
239
238
239
255
255
255
93
93
93
0
2
2
153
1
1
255
0
0
253
0
0
250
0
0
248
0
0
247
0
0
246
0
0
247
0
0
248
0
0
247
0
0
244
0
0
240
0
0
238
0
0
237
0
0
236
0
0
235
0
0
233
0
0
232
0
0
231
0
0
230
0
0
228
0
0
227
0
0
226
0
0
225
0
0
220
3
3
214
7
7
208
10
11
202
14
15
196
18
19
190
22
22
184
26
27
178
30
30
172
33
34
166
38
38
160
41
42
154
45
46
148
49
50
142
53
54
132
50
51
177
136
138
209
192
193
212
196
197
137
104
106
102
70
72
100
80
82
125
118
118
252
252
252
255
255
255
167
165
165
152
1
1
255
0
0
253
0
0
251
0
0
250
0
0
248
0
0
247
0
0
246
0
0
245
0
0
243
0
0
242
0
0
241
0
0
239
0
0
238
0
0
237
0
0
236
0
0
235
0
0
233
0
0
232
0
0
231
0
0
230
0
0
228
0
0
227
0
0
226
0
0
225
0
0
220
3
3
214
7
7
208
10
11
202
14
15
196
18
19
190
22
22
184
26
27
178
30
30
172
33
34
166
38
38
160
41
42
154
45
46
148
49
50
140
48
49
147
77
78
201
179
179
209
191
192
192
171
172
113
73
74
105
75
77
100
80
82
171
165
166
252
252
252
255
255
255
252
234
234
255
16
16
254
0
0
252
0
0
251
0
0
250
0
0
248
0
0
247
0
0
246
0
0
245
0
0
243
0
0
242
0
0
241
0
0
239
0
0
238
0
0
237
0
0
236
0
0
235
0
0
233
0
0
232
0
0
231
0
0
230
0
0
228
0
0
227
0
0
226
0
0
225
0
0
220
3
3
214
7
7
208
10
11
202
14
15
196
18
19
190
22
22
184
26
27
178
30
30
172
33
34
166
38
38
160
41
42
154
45
46
148
49
50
139
47
48
180
137
138
205
186
187
210
193
194
155
120
121
107
65
66
106
76
78
101
81
83
222
218
220
252
252
252
255
255
255
255
255
255
255
95
95
253
0
0
252
0
0
251
0
0
250
0
0
248
0
0
247
0
0
246
0
0
245
0
0
243
0
0
242
0
0
241
0
0
239
0
0
238
0
0
237
0
0
236
0
0
235
0
0
233
0
0
232
0
0
231
0
0
230
0
0
228
0
0
227
0
0
226
0
0
225
0
0
220
3
3
214
7
7
208
10
11
202
14
15
196
18
19
190
22
22
184
26
27
178
30
30
172
33
34
166
38
38
160
41
42
154
45
46
144
42
43
161
91
92
200
178
179
205
184
185
193
169
170
121
72
73
111
71
72
106
76
78
135
119
122
251
251
251
251
251
251
255
255
255
255
255
255
255
204
204
253
1
1
252
0
0
251
0
0
250
0
0
248
0
0
247
0
0
246
0
0
245
0
0
243
0
0
242
0
0
241
0
0
239
0
0
238
0
0
237
0
0
236
0
0
235
0
0
233
0
0
232
0
0
231
0
0
230
0
0
228
0
0
227
0
0
226
0
0
225
0
0
220
3
3
214
7
7
208
10
11
202
14
15
196
18
19
190
22
22
184
26
27
178
30
30
172
33
34
166
38
38
160
41
42
153
41
42
152
59
60
191
158
159
200
177
178
206
186
187
151
106
107
114
61
63
112
72
74
106
76
78
202
194
195
251
251
251
251
251
251
255
255
255
255
255
255
255
255
255
254
81
81
252
0
0
251
0
0
250
0
0
248
0
0
247
0
0
246
0
0
245
0
0
243
0
0
242
0
0
241
0
0
239
0
0
238
0
0
237
0
0
236
0
0
235
0
0
233
0
0
232
0
0
231
0
0
230
0
0
228
0
0
227
0
0
226
0
0
225
0
0
220
3
3
214
7
7
208
10
11
202
14
15
196
18
19
190
22
22
184
26
27
178
30
30
172
33
34
166
38
38
160
39
40
153
43
44
181
131
132
197
173
174
203
181
181
178
142
143
122
60
62
118
68
69
112
72
74
134
110
111
249
249
249
251
251
251
251
251
251
255
255
255
255
255
255
255
255
255
255
213
213
252
8
8
251
0
0
250
0
0
248
0
0
247
0
0
246
0
0
245
0
0
243
0
0
242
0
0
241
0
0
239
0
0
238
0
0
237
0
0
236
0
0
235
0
0
233
0
0
232
0
0
231
0
0
230
0
0
228
0
0
227
0
0
226
0
0
225
0
0
220
3
3
214
7
7
208
10
11
202
14
15
196
18
19
190
22
22
184
26
27
178
30
30
172
33
34
166
37
37
159
36
37
175
111
111
194
168
169
198
172
173
191
160
161
135
69
70
122
61
63
118
68
70
112
72
74
212
203
204
252
252
252
251
251
251
250
250
250
255
255
255
255
255
255
255
255
255
255
255
255
253
126
126
251
0
0
250
0
0
248
0
0
247
0
0
246
0
0
245
0
0
243
0
0
242
0
0
241
0
0
239
0
0
238
0
0
237
0
0
236
0
0
235
0
0
233
0
0
232
0
0
231
0
0
230
0
0
228
0
0
227
0
0
226
0
0
225
0
0
220
3
3
214
7
7
208
10
11
202
14
15
196
18
19
190
22
22
184
26
27
178
30
30
172
32
33
165
31
32
174
96
97
190
161
162
194
165
166
193
163
164
148
79
80
127
55
56
124
64
66
118
68
70
162
136
137
254
254
254
252
252
252
251
251
251
250
250
250
255
255
255
255
255
255
255
255
255
255
255
255
255
248
248
252
56
56
250
0
0
248
0
0
247
0
0
246
0
0
245
0
0
243
0
0
242
0
0
241
0
0
239
0
0
238
0
0
237
0
0
236
0
0
235
0
0
233
0
0
232
0
0
231
0
0
230
0
0
228
0
0
227
0
0
226
0
0
225
0
0
220
3
3
214
7
7
208
10
11
202
14
15
196
18
19
190
22
22
184
26
27
178
28
29
172
28
29
175
90
91
186
153
155
190
160
161
191
159
160
155
81
83
133
50
51
130
61
62
124
64
66
134
90
92
242
238
238
254
254
254
252
251
252
250
250
250
249
249
249
255
255
255
255
255
255
255
255
255
255
255
255
255
255
255
254
220
220
250
23
23
248
0
0
247
0
0
246
0
0
245
0
0
243
0
0
242
0
0
241
0
0
239
0
0
238
0
0
237
0
0
236
0
0
235
0
0
233
0
0
232
0
0
231
0
0
230
0
0
228
0
0
227
0
0
226
0
0
225
0
0
220
3
3
214
7
7
208
10
11
202
14
15
196
18
19
190
22
22
184
23
23
178
27
28
176
93
94
183
148
150
187
155
157
186
146
148
158
74
75
140
46
47
136
57
58
130
61
62
122
62
63
220
207
208
254
254
254
253
253
253
250
251
250
249
249
249
248
248
248
255
255
255
255
255
255
255
255
255
255
255
255
255
255
255
255
255
255
254
210
210
248
9
9
247
0
0
246
0
0
245
0
0
243
0
0
242
0
0
241
0
0
239
0
0
238
0
0
237
0
0
236
0
0
235
0
0
233
0
0
232
0
0
231
0
0
230
0
0
228
0
0
227
0
0
226
0
0
225
0
0
220
3
3
214
7
7
208
10
11
202
14
15
196
18
19
190
16
16
184
31
32
177
100
101
179
143
145
184
150
152
180
126
128
158
59
60
146
43
44
142
53
54
136
57
58
129
60
61
219
203
203
254
254
254
254
254
254
252
252
252
249
250
249
247
248
247
246
247
246
255
255
255
255
255
255
255
255
255
255
255
255
255
255
255
255
255
255
255
255
255
253
179
179
247
9
9
246
0
0
245
0
0
243
0
0
242
0
0
241
0
0
239
0
0
238
0
0
237
0
0
236
0
0
235
0
0
233
0
0
232
0
0
231
0
0
230
0
0
228
0
0
227
0
0
226
0
0
225
0
0
220
3
3
214
7
7
208
10
11
202
12
13
196
10
10
190
48
49
182
119
120
176
142
143
179
136
137
175
93
94
161
42
43
153
41
42
148
49
50
142
53
54
134
54
55
205
179
179
254
255
254
254
254
254
254
254
254
252
252
252
249
249
249
246
247
246
244
246
244
255
255
255
255
255
255
255
255
255
255
255
255
255
255
255
255
255
255
255
255
255
255
255
255
253
188
188
247
22
22
245
0
0
243
0
0
242
0
0
241
0
0
239
0
0
238
0
0
237
0
0
236
0
0
235
0
0
233
0
0
232
0
0
231
0
0
230
0
0
228
0
0
227
0
0
226
0
0
225
0
0
220
3
3
214
7
7
208
3
3
202
15
15
197
81
82
191
145
146
182
141
143
177
102
103
173
53
53
165
31
32
160
39
40
154
45
46
148
49
50
146
59
60
211
182
182
254
255
254
254
255
254
254
254
254
253
253
253
251
251
251
248
248
248
245
245
245
243
244
243
255
255
255
255
255
255
255
255
255
255
255
255
255
255
255
255
255
255
255
255
255
255
255
255
255
255
255
254
214
214
247
53
53
243
0
0
242
0
0
241
0
0
239
0
0
238
0
0
237
0
0
236
0
0
235
0
0
233
0
0
232
0
0
231
0
0
230
0
0
228
0
0
227
0
0
226
0
0
225
0
0
220
0
0
214
0
0
210
51
51
206
131
132
199
151
152
191
107
108
184
55
56
178
26
27
172
29
30
166
38
38
160
41
42
154
45
46
162
75
77
226
204
204
255
255
255
254
254
254
254
254
254
253
253
253
252
252
252
250
250
250
246
247
246
243
243
243
241
241
241
255
255
255
255
255
255
255
255
255
255
255
255
255
255
255
255
255
255
255
255
255
255
255
255
255
255
255
255
255
255
255
245
245
248
116
116
242
4
4
241
0
0
239
0
0
238
0
0
237
0
0
236
0
0
235
0
0
233
0
0
232
0
0
231
0
0
230
0
0
228
0
0
227
0
0
226
0
0
225
2
2
223
41
41
220
108
108
215
134
135
205
92
92
197
41
41
190
17
18
184
21
21
178
30
30
172
33
34
166
38
38
160
41
42
192
123
123
244
235
236
254
254
254
254
254
254
254
254
254
254
253
254
253
252
253
251
251
251
248
249
248
243
244
243
240
240
240
238
237
238
255
255
255
255
255
255
255
255
255
255
255
255
255
255
255
255
255
255
255
255
255
255
255
255
255
255
255
255
255
255
255
255
255
255
255
255
252
199
199
245
71
71
239
0
0
238
0
0
237
0
0
236
0
0
235
0
0
233
0
0
232
0
0
231
0
0
230
0
0
228
0
0
227
0
0
227
10
10
229
52
52
226
74
74
217
47
47
208
12
13
202
5
6
196
13
14
190
22
22
184
26
27
178
30
30
172
33
34
185
85
85
226
192
192
254
254
254
254
254
254
254
254
254
254
254
254
254
253
254
253
252
253
251
250
251
249
249
249
245
246
245
240
240
240
236
235
236
233
232
233
255
255
255
255
255
255
255
255
255
255
255
255
255
255
255
255
255
255
255
255
255
255
255
255
255
255
255
255
255
255
255
255
255
254
254
254
254
254
254
254
254
254
250
185
185
243
80
80
238
9
9
236
0
0
235
0
0
233
0
0
232
0
0
231
0
0
230
0
0
228
0
0
227
0
0
227
3
3
225
1
1
220
0
0
214
1
1
208
9
10
202
14
15
196
18
19
190
22
22
185
29
30
198
89
89
226
180
180
252
250
250
253
253
253
253
253
253
253
253
253
253
253
253
253
253
253
253
252
253
251
250
251
249
248
249
246
247
246
241
242
241
235
234
235
229
228
229
226
225
226
255
255
255
255
255
255
255
255
255
255
255
255
255
255
255
255
255
255
255
255
255
255
255
255
255
255
255
255
255
255
254
254
254
254
254
254
254
254
254
254
254
254
254
254
254
254
254
254
251
217
217
247
142
142
240
72
72
234
24
24
231
0
0
230
0
0
229
0
0
227
0
0
226
0
0
225
0
0
224
0
0
219
0
0
213
0
0
207
1
2
204
24
25
209
71
71
223
139
139
241
210
210
254
254
254
253
253
253
253
253
253
253
253
253
253
252
253
253
253
253
253
253
253
252
253
252
251
251
251
250
249
250
247
247
247
244
244
244
238
239
238
230
229
230
224
222
224
221
218
221
255
255
255
255
255
255
255
255
255
255
255
255
255
255
255
255
255
255
255
255
255
255
255
255
255
255
255
254
254
254
254
254
254
254
254
254
254
254
254
254
254
254
254
254
254
254
254
254
254
254
254
254
254
254
254
254
254
253
239
239
251
211
211
248
182
182
246
158
158
243
141
141
242
134
134
241
133
133
241
140
140
242
156
156
243
180
180
246
209
209
251
238
238
255
255
255
255
255
255
254
254
254
253
253
253
253
253
253
253
253
253
253
252
253
253
252
253
253
253
253
253
253
253
252
253
252
251
251
251
249
249
249
246
246
246
242
243
242
236
237
236
228
227
228
222
219
222
218
215
218
